<svg width="48" height="48" xmlns="http://www.w3.org/2000/svg">

 <g>
  <title>Layer 1</title>
  <path id="svg_1" d="m0,12l0,24l25,0l23,-24l-48,0z" fill="#1976d2"/>
  <path id="svg_2" d="m27.5,18l-4.5,0l0,7l0,2l0,0.5l-3.8,-9.5l-3.5,0l-3.088,7.883c-0.405,-1.752 -2.259,-2.417 -3.412,-2.683c-3,-0.8 -3.2,-1.2 -3.2,-1.8c0,-1.5 4,-0.8 5,-0.4c0.3,-0.8 0.9,-2.3 0.9,-2.3s-1.1,-0.7 -4.5,-0.7c-3.4,0 -4.4,2.1 -4.4,3.4c0,1.3 0.7,2.8 2.6,3.4c2,0.6 3.5,0.7 3.5,1.7s-3.4,1.2 -5.3,0l-0.8,2.6c0,0 1.1,0.9 4.4,0.9c1.781,0 3.167,-0.503 4.08,-1.226l-0.48,1.226l3.5,0l0.6,-1.8c0.7,0.3 1.5,0.5 2.4,0.5s1.7,-0.2 2.4,-0.5l0.6,1.8l2.5,0l1,0l2,0l0,-3l1.5,0c2.5,0 4.5,-2 4.5,-4.5s-2,-4.5 -4.5,-4.5zm-10,8.1c-0.6,0 -1.1,-0.1 -1.5,-0.4l1.5,-4.3l1.5,4.3c-0.4,0.3 -0.9,0.4 -1.5,0.4zm10,-2.1l-1.5,0l0,-3l1.5,0c0.8,0 1.5,0.7 1.5,1.5s-0.7,1.5 -1.5,1.5z" fill="#fff"/>
 </g>
</svg>